<?xml version="1.0" encoding="UTF-8" standalone="no"?>
<svg
   xmlns:dc="http://purl.org/dc/elements/1.1/"
   xmlns:cc="http://creativecommons.org/ns#"
   xmlns:rdf="http://www.w3.org/1999/02/22-rdf-syntax-ns#"
   xmlns:svg="http://www.w3.org/2000/svg"
   xmlns="http://www.w3.org/2000/svg"
   version="1.1"
   id="svg4219"
   viewBox="0 0 744.09448819 1052.3622047"
   height="297mm"
   width="300mm">
  <defs
     id="defs4221" />
  <metadata
     id="metadata4224">
    <rdf:RDF>
      <cc:Work
         rdf:about="">
        <dc:format>image/svg+xml</dc:format>
        <dc:type
           rdf:resource="http://purl.org/dc/dcmitype/StillImage" />
        <dc:title></dc:title>
      </cc:Work>
    </rdf:RDF>
  </metadata>
  <g
     id="layer1">
    <path
       id="path4150"
       d="m 48.750743,127.24539 -10,128.57143"
       style="display:inline;opacity:0.98000004;fill:#594a3f;fill-opacity:0.83921569;fill-rule:evenodd;stroke:#5b4d44;stroke-width:9.39999962;stroke-linecap:round;stroke-linejoin:miter;stroke-miterlimit:4;stroke-dasharray:none;stroke-opacity:0.83921569" />
    <path
       id="path4152"
       d="M 118.75074,121.53111 87.322173,264.38825 c 0,-58.57142 -42.85714,-75.71428 -42.85714,-75.71428 l 124.285717,5.71428 c -40.00001,50 -38.57144,90 -2.85714,95.71429 35.71428,5.71428 40,-52.85715 11.42857,-87.14286 57.1429,55.71429 54.2857,80 54.2857,80"
       style="display:inline;opacity:0.98000004;fill:none;fill-opacity:0.97254902;fill-rule:evenodd;stroke:#604c42;stroke-width:9.39999962;stroke-linecap:butt;stroke-linejoin:miter;stroke-miterlimit:4;stroke-dasharray:none;stroke-opacity:0.97254902" />
    <path
       id="path4154"
       d="m 231.60788,298.67397 c 70,72.85714 84.2857,-161.42858 84.2857,-161.42858"
       style="display:inline;opacity:0.98000004;fill:none;fill-rule:evenodd;stroke:#614d43;stroke-width:9.39999962;stroke-linecap:round;stroke-linejoin:miter;stroke-miterlimit:4;stroke-dasharray:none;stroke-opacity:0.97254902" />
    <path
       id="path4156"
       d="m 304.46508,230.10254 c 32.8571,-80 39.99999,-11.42857 35.7142,24.28571 -4.2857,35.71429 5.71429,65.71429 31.42859,67.14286 25.7143,1.42857 47.1429,-38.57143 51.4286,-74.28572 4.2857,-35.71428 10,-89.99999 10,-89.99999"
       style="display:inline;opacity:0.98000004;fill:none;fill-rule:evenodd;stroke:#614d43;stroke-width:9.39999962;stroke-linecap:round;stroke-linejoin:miter;stroke-miterlimit:4;stroke-dasharray:none;stroke-opacity:0.97254902" />
    <path
       id="path4158"
       d="m 423.03647,257.24539 c 47.1428,-67.14285 68.5714,-32.85714 62.8571,58.57143 102.8572,20 94.2857,-78.57143 94.2857,-78.57143 -65.7142,8.57143 -34.2857,75.71429 -34.2857,75.71429 l 25.7143,-22.85714"
       style="display:inline;opacity:0.98000004;fill:none;fill-rule:evenodd;stroke:#614d43;stroke-width:9.39999962;stroke-linecap:round;stroke-linejoin:miter;stroke-miterlimit:4;stroke-dasharray:none;stroke-opacity:0.97254902" />
    <path
       id="path4160"
       d="m 575.89357,292.95968 c 32.8572,91.42857 70,92.85714 90,-22.85714 20,-115.71429 34.2857,-97.14286 34.2857,-97.14286 l 20,-155.714275"
       style="display:inline;opacity:0.98000004;fill:none;fill-rule:evenodd;stroke:#614d43;stroke-width:9.39999962;stroke-linecap:round;stroke-linejoin:miter;stroke-miterlimit:4;stroke-dasharray:none;stroke-opacity:0.97254902" />
    <path
       id="path4162"
       d="m 700.17927,190.10254 c 25.7143,-111.428556 71.4286,-148.571421 74.2858,-57.14286 2.8571,91.42857 8.5714,220 8.5714,220"
       style="display:inline;opacity:0.98000004;fill:none;fill-rule:evenodd;stroke:#614d43;stroke-width:9.39999962;stroke-linecap:round;stroke-linejoin:miter;stroke-miterlimit:4;stroke-dasharray:none;stroke-opacity:0.97254902" />
    <path
       id="path4165"
       d="m 51.607883,125.81682 -12.85714,130"
       style="opacity:0.88200001;fill:none;fill-rule:evenodd;stroke:#d1804a;stroke-width:9.39999962;stroke-linecap:round;stroke-linejoin:miter;stroke-miterlimit:4;stroke-dasharray:none;stroke-opacity:0.83921569" />
    <path
       id="path4167"
       d="m 88.750743,261.53111 c -17.14286,-8.57143 -22.85714,-18.57143 -42.85714,-77.14286 65.714277,38.57143 121.428577,14.28572 121.428577,14.28572 -44.28572,42.85714 -37.14287,60 -35.7143,71.42857 1.42858,11.42857 59.82415,44.26406 65.7143,-2.85715 4.28571,-34.28571 -37.14286,-78.57142 -37.14286,-78.57142"
       style="opacity:0.88200001;fill:none;fill-rule:evenodd;stroke:#d1804a;stroke-width:9.39999962;stroke-linecap:round;stroke-linejoin:miter;stroke-miterlimit:4;stroke-dasharray:none;stroke-opacity:0.83921569" />
    <path
       id="path4169"
       d="m 191.60789,235.81682 c 17.14286,38.57143 25.71429,60 55.71429,72.85715 30,12.85714 52.8571,-100 64.2857,-170"
       style="opacity:0.88200001;fill:none;fill-rule:evenodd;stroke:#d1804a;stroke-width:9.39999962;stroke-linecap:round;stroke-linejoin:miter;stroke-miterlimit:4;stroke-dasharray:none;stroke-opacity:0.83921569" />
    <path
       id="path4171"
       d="m 293.03648,227.24539 c 41.4286,-54.28571 45.7143,-32.85714 42.8571,38.57143 -2.8571,71.42857 51.42859,58.57143 78.57149,20 32.8571,-104.28571 25.7142,-151.42857 25.7142,-151.42857"
       style="opacity:0.88200001;fill:none;fill-rule:evenodd;stroke:#d1804a;stroke-width:9.39999962;stroke-linecap:round;stroke-linejoin:miter;stroke-miterlimit:4;stroke-dasharray:none;stroke-opacity:0.83921569" />
    <path
       id="path4173"
       d="m 420.17927,265.81682 c 35.7143,-58.57143 62.8572,-61.42857 62.8572,50 88.5714,5.71429 98.5714,-67.14285 72.8571,-85.71428 -25.7143,-18.57143 -34.2857,65.71428 -10,80"
       style="opacity:0.88200001;fill:none;fill-rule:evenodd;stroke:#d1804a;stroke-width:9.39999962;stroke-linecap:round;stroke-linejoin:miter;stroke-miterlimit:4;stroke-dasharray:none;stroke-opacity:0.83921569" />
    <path
       id="path4175"
       d="m 557.32217,294.38825 c 48.5714,21.42857 21.4286,54.28572 77.1429,72.85714 55.7142,18.57143 87.1428,-347.142843 87.1428,-347.142843"
       style="opacity:0.88200001;fill:none;fill-rule:evenodd;stroke:#d1804a;stroke-width:9.39999962;stroke-linecap:round;stroke-linejoin:miter;stroke-miterlimit:4;stroke-dasharray:none;stroke-opacity:0.83921569" />
    <path
       id="path4177"
       d="m 697.32217,232.95968 c 24.2857,-195.714275 82.8571,-168.571416 88.5714,-100 32.8572,70 22.8572,222.85714 22.8572,222.85714"
       style="opacity:0.88200001;fill:none;fill-rule:evenodd;stroke:#d1804a;stroke-width:9.39999962;stroke-linecap:round;stroke-linejoin:miter;stroke-miterlimit:4;stroke-dasharray:none;stroke-opacity:0.83921569" />
    <path
       id="path4179"
       d="m 33.036463,542.24539 c -9.92537,42.43191 16.42857,49.28572 24.28571,-0.71428 7.85714,-50 -19.34505,-20.40752 -24.28571,0.71428 z"
       style="fill:#2b4f3f;fill-opacity:0.83921569;fill-rule:evenodd;stroke:none;stroke-width:1px;stroke-linecap:butt;stroke-linejoin:miter;stroke-opacity:1" />
    <path
       id="path4181"
       d="m 95.179313,529.38825 c -25,21.42857 -10.71428,32.14286 -2.14285,39.28571 8.571427,7.14286 22.857137,-20 22.857137,-30 0,-10 -10.75687,-17.82064 -20.714287,-9.28571 z"
       style="fill:#2d4f40;fill-opacity:0.97254902;fill-rule:evenodd;stroke:none;stroke-width:1px;stroke-linecap:butt;stroke-linejoin:miter;stroke-opacity:1" />
    <path
       id="path4183"
       d="m 161.6079,528.67396 c 16.55781,-7.27344 30,-4.28571 31.42857,12.14286 1.42857,16.42857 -6.42857,30.71429 -15,30.71429 -8.57143,0 -30.83238,-36.52991 -16.42857,-42.85715 z"
       style="fill:#2c4f40;fill-opacity:0.97254902;fill-rule:evenodd;stroke:none;stroke-width:1px;stroke-linecap:butt;stroke-linejoin:miter;stroke-opacity:1" />
    <path
       id="path4185"
       d="m 268.75078,520.10254 c -5.7143,36.42857 -18.5715,45.71428 -25.7143,45 -7.1429,-0.71429 -15.7143,-22.14286 -9.2857,-30.71429 6.4285,-8.57143 35,-14.28571 35,-14.28571 z"
       style="fill:#2c4f40;fill-opacity:0.97254902;fill-rule:evenodd;stroke:none;stroke-width:1px;stroke-linecap:butt;stroke-linejoin:miter;stroke-opacity:1" />
    <path
       id="path4187"
       d="m 336.60788,522.24539 c -20.7143,30.71429 -10,40 -5,41.42857 5,1.42858 22.14289,-4.28571 23.57139,-13.57142 1.4286,-9.28572 0.7143,-24.28572 -5.7142,-27.85715 -6.4286,-3.57143 -12.85719,0 -12.85719,0 z"
       style="fill:#2c4f40;fill-opacity:0.97254902;fill-rule:evenodd;stroke:none;stroke-width:1px;stroke-linecap:butt;stroke-linejoin:miter;stroke-opacity:1" />
    <path
       id="path4189"
       d="m 420.89357,546.53111 c 0,25 1.4286,31.42857 12.8572,31.42857 11.4285,0 25.7143,-7.14286 25.7143,-17.85714 0,-10.71429 -5.7143,-27.14286 -17.8572,-25 -12.1428,2.14285 -20.7143,11.42857 -20.7143,11.42857 z"
       style="fill:#2c4f40;fill-opacity:0.97254902;fill-rule:evenodd;stroke:none;stroke-width:1px;stroke-linecap:butt;stroke-linejoin:miter;stroke-opacity:1" />
  </g>
</svg>
